<mxfile host="app.diagrams.net" modified="2022-03-19T04:52:49.140Z" agent="5.0 (Macintosh; Intel Mac OS X 10_15_7) AppleWebKit/537.36 (KHTML, like Gecko) Chrome/99.0.4844.74 Safari/537.36" etag="WOUiiyi9zQ1sSB7wQTNK" version="17.1.3" type="github">
  <diagram id="dxoiGo7O42SpYoOW8S6E" name="第 1 页">
    <mxGraphModel dx="912" dy="868" grid="0" gridSize="10" guides="1" tooltips="1" connect="1" arrows="1" fold="1" page="1" pageScale="1" pageWidth="827" pageHeight="1169" math="0" shadow="0">
      <root>
        <mxCell id="0" />
        <mxCell id="1" parent="0" />
        <mxCell id="DIGAB8idFGFszik6X5s0-2" value="" style="sketch=0;aspect=fixed;pointerEvents=1;shadow=0;dashed=0;html=1;strokeColor=none;labelPosition=center;verticalLabelPosition=bottom;verticalAlign=top;align=center;fillColor=#00188D;shape=mxgraph.azure.computer" parent="1" vertex="1">
          <mxGeometry x="110" y="240" width="70" height="63" as="geometry" />
        </mxCell>
        <mxCell id="DIGAB8idFGFszik6X5s0-3" value="" style="image;html=1;image=img/lib/clip_art/computers/Server_128x128.png" parent="1" vertex="1">
          <mxGeometry x="520" y="227.75" width="90" height="87.5" as="geometry" />
        </mxCell>
        <mxCell id="DIGAB8idFGFszik6X5s0-5" value="" style="outlineConnect=0;dashed=0;verticalLabelPosition=bottom;verticalAlign=top;align=center;html=1;shape=mxgraph.aws3.android;fillColor=#115193;gradientColor=none;" parent="1" vertex="1">
          <mxGeometry x="260" y="191.5" width="180" height="160" as="geometry" />
        </mxCell>
        <mxCell id="DIGAB8idFGFszik6X5s0-6" value="&lt;font style=&quot;font-size: 18px&quot;&gt;&lt;b&gt;1&lt;/b&gt;&lt;/font&gt;" style="ellipse;whiteSpace=wrap;html=1;fillColor=#fff2cc;strokeColor=#d6b656;" parent="1" vertex="1">
          <mxGeometry x="70" y="321.5" width="40" height="30" as="geometry" />
        </mxCell>
        <mxCell id="DIGAB8idFGFszik6X5s0-7" value="&lt;font style=&quot;font-size: 18px&quot;&gt;&lt;b&gt;2&lt;/b&gt;&lt;/font&gt;" style="ellipse;whiteSpace=wrap;html=1;fillColor=#fff2cc;strokeColor=#d6b656;" parent="1" vertex="1">
          <mxGeometry x="125" y="321.5" width="40" height="30" as="geometry" />
        </mxCell>
        <mxCell id="DIGAB8idFGFszik6X5s0-8" value="&lt;font style=&quot;font-size: 18px&quot;&gt;&lt;b&gt;3&lt;/b&gt;&lt;/font&gt;" style="ellipse;whiteSpace=wrap;html=1;fillColor=#fff2cc;strokeColor=#d6b656;" parent="1" vertex="1">
          <mxGeometry x="180" y="321.5" width="40" height="30" as="geometry" />
        </mxCell>
        <mxCell id="DIGAB8idFGFszik6X5s0-9" value="&lt;font style=&quot;font-size: 18px&quot;&gt;&lt;b&gt;1&lt;/b&gt;&lt;/font&gt;" style="ellipse;whiteSpace=wrap;html=1;fillColor=#d5e8d4;strokeColor=#82b366;" parent="1" vertex="1">
          <mxGeometry x="490" y="315.25" width="40" height="30" as="geometry" />
        </mxCell>
        <mxCell id="DIGAB8idFGFszik6X5s0-10" value="&lt;font style=&quot;font-size: 18px&quot;&gt;&lt;b&gt;2&lt;/b&gt;&lt;/font&gt;" style="ellipse;whiteSpace=wrap;html=1;fillColor=#d5e8d4;strokeColor=#82b366;" parent="1" vertex="1">
          <mxGeometry x="545" y="315.25" width="40" height="30" as="geometry" />
        </mxCell>
        <mxCell id="DIGAB8idFGFszik6X5s0-11" value="&lt;font style=&quot;font-size: 18px&quot;&gt;&lt;b&gt;3&lt;/b&gt;&lt;/font&gt;" style="ellipse;whiteSpace=wrap;html=1;fillColor=#d5e8d4;strokeColor=#82b366;" parent="1" vertex="1">
          <mxGeometry x="600" y="315.25" width="40" height="30" as="geometry" />
        </mxCell>
        <mxCell id="DIGAB8idFGFszik6X5s0-12" value="" style="shape=flexArrow;endArrow=classic;html=1;rounded=0;fontSize=18;fillColor=#e1d5e7;strokeColor=#9673a6;" parent="1" edge="1">
          <mxGeometry width="50" height="50" relative="1" as="geometry">
            <mxPoint x="190" y="271.18" as="sourcePoint" />
            <mxPoint x="250" y="271.18" as="targetPoint" />
          </mxGeometry>
        </mxCell>
        <mxCell id="DIGAB8idFGFszik6X5s0-13" value="" style="shape=flexArrow;endArrow=classic;html=1;rounded=0;fontSize=18;fillColor=#e1d5e7;strokeColor=#9673a6;" parent="1" edge="1">
          <mxGeometry width="50" height="50" relative="1" as="geometry">
            <mxPoint x="450" y="271.18000000000006" as="sourcePoint" />
            <mxPoint x="510" y="271.18000000000006" as="targetPoint" />
          </mxGeometry>
        </mxCell>
        <mxCell id="9xbZ0IDPheajc5WfQAc6-3" value="" style="edgeStyle=orthogonalEdgeStyle;rounded=0;orthogonalLoop=1;jettySize=auto;html=1;strokeWidth=4;fontSize=18;fontStyle=1" edge="1" parent="1" source="9xbZ0IDPheajc5WfQAc6-1" target="9xbZ0IDPheajc5WfQAc6-2">
          <mxGeometry relative="1" as="geometry" />
        </mxCell>
        <mxCell id="9xbZ0IDPheajc5WfQAc6-1" value="性能问题" style="rounded=1;whiteSpace=wrap;html=1;strokeWidth=4;fontSize=18;fontStyle=1;fillColor=#f8cecc;strokeColor=#b85450;" vertex="1" parent="1">
          <mxGeometry x="80" y="500" width="120" height="60" as="geometry" />
        </mxCell>
        <mxCell id="9xbZ0IDPheajc5WfQAc6-5" value="" style="edgeStyle=orthogonalEdgeStyle;rounded=0;orthogonalLoop=1;jettySize=auto;html=1;strokeWidth=4;fontSize=18;fontStyle=1" edge="1" parent="1" source="9xbZ0IDPheajc5WfQAc6-2" target="9xbZ0IDPheajc5WfQAc6-4">
          <mxGeometry relative="1" as="geometry" />
        </mxCell>
        <mxCell id="9xbZ0IDPheajc5WfQAc6-2" value="连接复用" style="whiteSpace=wrap;html=1;rounded=1;strokeWidth=4;fontSize=18;fontStyle=1;fillColor=#d5e8d4;strokeColor=#82b366;" vertex="1" parent="1">
          <mxGeometry x="80" y="610" width="120" height="60" as="geometry" />
        </mxCell>
        <mxCell id="9xbZ0IDPheajc5WfQAc6-7" value="" style="edgeStyle=orthogonalEdgeStyle;rounded=0;orthogonalLoop=1;jettySize=auto;html=1;strokeWidth=4;fontSize=18;fontStyle=1;exitX=1;exitY=0.5;exitDx=0;exitDy=0;entryX=0;entryY=0.5;entryDx=0;entryDy=0;" edge="1" parent="1" source="9xbZ0IDPheajc5WfQAc6-4" target="9xbZ0IDPheajc5WfQAc6-6">
          <mxGeometry relative="1" as="geometry" />
        </mxCell>
        <mxCell id="9xbZ0IDPheajc5WfQAc6-4" value="Keep-Alive 机制" style="whiteSpace=wrap;html=1;rounded=1;strokeWidth=4;fontSize=18;fontStyle=1;fillColor=#d5e8d4;strokeColor=#82b366;" vertex="1" parent="1">
          <mxGeometry x="65" y="750" width="150" height="60" as="geometry" />
        </mxCell>
        <mxCell id="9xbZ0IDPheajc5WfQAc6-9" value="" style="edgeStyle=orthogonalEdgeStyle;rounded=0;orthogonalLoop=1;jettySize=auto;html=1;strokeWidth=4;fontSize=18;fontStyle=1" edge="1" parent="1" source="9xbZ0IDPheajc5WfQAc6-6" target="9xbZ0IDPheajc5WfQAc6-8">
          <mxGeometry relative="1" as="geometry" />
        </mxCell>
        <mxCell id="9xbZ0IDPheajc5WfQAc6-10" value="" style="edgeStyle=orthogonalEdgeStyle;rounded=0;orthogonalLoop=1;jettySize=auto;html=1;fontSize=18;strokeWidth=4;" edge="1" parent="1" source="9xbZ0IDPheajc5WfQAc6-6" target="9xbZ0IDPheajc5WfQAc6-8">
          <mxGeometry relative="1" as="geometry" />
        </mxCell>
        <mxCell id="9xbZ0IDPheajc5WfQAc6-6" value="连接关闭问题" style="whiteSpace=wrap;html=1;rounded=1;strokeWidth=4;fontSize=18;fontStyle=1;fillColor=#f8cecc;strokeColor=#b85450;" vertex="1" parent="1">
          <mxGeometry x="290" y="750" width="120" height="60" as="geometry" />
        </mxCell>
        <mxCell id="9xbZ0IDPheajc5WfQAc6-8" value="Content-Length" style="whiteSpace=wrap;html=1;rounded=1;strokeWidth=4;fontSize=18;fontStyle=1;fillColor=#d5e8d4;strokeColor=#82b366;" vertex="1" parent="1">
          <mxGeometry x="270" y="600" width="160" height="60" as="geometry" />
        </mxCell>
        <mxCell id="9xbZ0IDPheajc5WfQAc6-11" value="" style="sketch=0;aspect=fixed;pointerEvents=1;shadow=0;dashed=0;html=1;strokeColor=none;labelPosition=center;verticalLabelPosition=bottom;verticalAlign=top;align=center;fillColor=#00188D;shape=mxgraph.azure.computer" vertex="1" parent="1">
          <mxGeometry x="38" y="845" width="70" height="63" as="geometry" />
        </mxCell>
        <mxCell id="9xbZ0IDPheajc5WfQAc6-12" value="" style="image;html=1;image=img/lib/clip_art/computers/Server_128x128.png" vertex="1" parent="1">
          <mxGeometry x="207" y="832.75" width="90" height="87.5" as="geometry" />
        </mxCell>
        <mxCell id="9xbZ0IDPheajc5WfQAc6-13" value="" style="endArrow=classic;html=1;rounded=0;fontSize=18;strokeWidth=4;exitX=0.5;exitY=1;exitDx=0;exitDy=0;exitPerimeter=0;" edge="1" parent="1" source="9xbZ0IDPheajc5WfQAc6-11">
          <mxGeometry width="50" height="50" relative="1" as="geometry">
            <mxPoint x="387" y="696" as="sourcePoint" />
            <mxPoint x="73" y="1171" as="targetPoint" />
          </mxGeometry>
        </mxCell>
        <mxCell id="9xbZ0IDPheajc5WfQAc6-14" value="" style="endArrow=classic;html=1;rounded=0;fontSize=18;strokeWidth=4;exitX=0.5;exitY=1;exitDx=0;exitDy=0;exitPerimeter=0;" edge="1" parent="1">
          <mxGeometry width="50" height="50" relative="1" as="geometry">
            <mxPoint x="256" y="906" as="sourcePoint" />
            <mxPoint x="256" y="1169" as="targetPoint" />
          </mxGeometry>
        </mxCell>
        <mxCell id="9xbZ0IDPheajc5WfQAc6-15" value="" style="endArrow=classic;html=1;rounded=0;fontSize=18;strokeWidth=2;fillColor=#d5e8d4;strokeColor=#82b366;" edge="1" parent="1">
          <mxGeometry width="50" height="50" relative="1" as="geometry">
            <mxPoint x="80" y="930" as="sourcePoint" />
            <mxPoint x="250" y="960" as="targetPoint" />
          </mxGeometry>
        </mxCell>
        <mxCell id="9xbZ0IDPheajc5WfQAc6-22" value="&lt;span style=&quot;background-color: rgb(248 , 249 , 250)&quot;&gt;请求1&lt;/span&gt;" style="edgeLabel;html=1;align=center;verticalAlign=middle;resizable=0;points=[];fontSize=18;" vertex="1" connectable="0" parent="9xbZ0IDPheajc5WfQAc6-15">
          <mxGeometry x="-0.6114" relative="1" as="geometry">
            <mxPoint x="37" as="offset" />
          </mxGeometry>
        </mxCell>
        <mxCell id="9xbZ0IDPheajc5WfQAc6-16" value="" style="endArrow=classic;html=1;rounded=0;fontSize=18;strokeWidth=2;fillColor=#d5e8d4;strokeColor=#82b366;" edge="1" parent="1">
          <mxGeometry width="50" height="50" relative="1" as="geometry">
            <mxPoint x="80" y="1020" as="sourcePoint" />
            <mxPoint x="250" y="1050" as="targetPoint" />
          </mxGeometry>
        </mxCell>
        <mxCell id="9xbZ0IDPheajc5WfQAc6-23" value="&lt;span style=&quot;background-color: rgb(248 , 249 , 250)&quot;&gt;请求2&lt;/span&gt;" style="edgeLabel;html=1;align=center;verticalAlign=middle;resizable=0;points=[];fontSize=18;" vertex="1" connectable="0" parent="9xbZ0IDPheajc5WfQAc6-16">
          <mxGeometry x="-0.2953" y="1" relative="1" as="geometry">
            <mxPoint x="10" y="10" as="offset" />
          </mxGeometry>
        </mxCell>
        <mxCell id="9xbZ0IDPheajc5WfQAc6-18" value="" style="endArrow=classic;html=1;rounded=0;fontSize=18;strokeWidth=2;fillColor=#f8cecc;strokeColor=#b85450;dashed=1;" edge="1" parent="1">
          <mxGeometry width="50" height="50" relative="1" as="geometry">
            <mxPoint x="244" y="970" as="sourcePoint" />
            <mxPoint x="80" y="1010" as="targetPoint" />
          </mxGeometry>
        </mxCell>
        <mxCell id="9xbZ0IDPheajc5WfQAc6-24" value="响应1" style="edgeLabel;html=1;align=center;verticalAlign=middle;resizable=0;points=[];fontSize=18;" vertex="1" connectable="0" parent="9xbZ0IDPheajc5WfQAc6-18">
          <mxGeometry x="0.0003" y="-4" relative="1" as="geometry">
            <mxPoint as="offset" />
          </mxGeometry>
        </mxCell>
        <mxCell id="9xbZ0IDPheajc5WfQAc6-20" value="" style="endArrow=classic;html=1;rounded=0;fontSize=18;strokeWidth=2;fillColor=#f8cecc;strokeColor=#b85450;dashed=1;" edge="1" parent="1">
          <mxGeometry width="50" height="50" relative="1" as="geometry">
            <mxPoint x="244" y="1060" as="sourcePoint" />
            <mxPoint x="80" y="1100" as="targetPoint" />
          </mxGeometry>
        </mxCell>
        <mxCell id="9xbZ0IDPheajc5WfQAc6-25" value="响应2" style="edgeLabel;html=1;align=center;verticalAlign=middle;resizable=0;points=[];fontSize=18;" vertex="1" connectable="0" parent="9xbZ0IDPheajc5WfQAc6-20">
          <mxGeometry x="-0.1752" y="-2" relative="1" as="geometry">
            <mxPoint x="-11" y="5" as="offset" />
          </mxGeometry>
        </mxCell>
        <mxCell id="9xbZ0IDPheajc5WfQAc6-26" value="" style="sketch=0;aspect=fixed;pointerEvents=1;shadow=0;dashed=0;html=1;strokeColor=none;labelPosition=center;verticalLabelPosition=bottom;verticalAlign=top;align=center;fillColor=#00188D;shape=mxgraph.azure.computer" vertex="1" parent="1">
          <mxGeometry x="340" y="845" width="70" height="63" as="geometry" />
        </mxCell>
        <mxCell id="9xbZ0IDPheajc5WfQAc6-27" value="" style="image;html=1;image=img/lib/clip_art/computers/Server_128x128.png" vertex="1" parent="1">
          <mxGeometry x="509" y="832.75" width="90" height="87.5" as="geometry" />
        </mxCell>
        <mxCell id="9xbZ0IDPheajc5WfQAc6-28" value="" style="endArrow=classic;html=1;rounded=0;fontSize=18;strokeWidth=4;exitX=0.5;exitY=1;exitDx=0;exitDy=0;exitPerimeter=0;" edge="1" parent="1" source="9xbZ0IDPheajc5WfQAc6-26">
          <mxGeometry width="50" height="50" relative="1" as="geometry">
            <mxPoint x="689" y="696" as="sourcePoint" />
            <mxPoint x="375" y="1171" as="targetPoint" />
          </mxGeometry>
        </mxCell>
        <mxCell id="9xbZ0IDPheajc5WfQAc6-29" value="" style="endArrow=classic;html=1;rounded=0;fontSize=18;strokeWidth=4;exitX=0.5;exitY=1;exitDx=0;exitDy=0;exitPerimeter=0;" edge="1" parent="1">
          <mxGeometry width="50" height="50" relative="1" as="geometry">
            <mxPoint x="558" y="906" as="sourcePoint" />
            <mxPoint x="558" y="1169" as="targetPoint" />
          </mxGeometry>
        </mxCell>
        <mxCell id="9xbZ0IDPheajc5WfQAc6-30" value="" style="endArrow=classic;html=1;rounded=0;fontSize=18;strokeWidth=2;fillColor=#d5e8d4;strokeColor=#82b366;" edge="1" parent="1">
          <mxGeometry width="50" height="50" relative="1" as="geometry">
            <mxPoint x="382" y="930" as="sourcePoint" />
            <mxPoint x="550" y="1000" as="targetPoint" />
          </mxGeometry>
        </mxCell>
        <mxCell id="9xbZ0IDPheajc5WfQAc6-31" value="&lt;span style=&quot;background-color: rgb(248 , 249 , 250)&quot;&gt;请求1&lt;/span&gt;" style="edgeLabel;html=1;align=center;verticalAlign=middle;resizable=0;points=[];fontSize=18;" vertex="1" connectable="0" parent="9xbZ0IDPheajc5WfQAc6-30">
          <mxGeometry x="-0.6114" relative="1" as="geometry">
            <mxPoint x="37" as="offset" />
          </mxGeometry>
        </mxCell>
        <mxCell id="9xbZ0IDPheajc5WfQAc6-32" value="" style="endArrow=classic;html=1;rounded=0;fontSize=18;strokeWidth=2;fillColor=#d5e8d4;strokeColor=#82b366;" edge="1" parent="1">
          <mxGeometry width="50" height="50" relative="1" as="geometry">
            <mxPoint x="382" y="970" as="sourcePoint" />
            <mxPoint x="550" y="1050" as="targetPoint" />
          </mxGeometry>
        </mxCell>
        <mxCell id="9xbZ0IDPheajc5WfQAc6-33" value="&lt;span style=&quot;background-color: rgb(248 , 249 , 250)&quot;&gt;请求2&lt;/span&gt;" style="edgeLabel;html=1;align=center;verticalAlign=middle;resizable=0;points=[];fontSize=18;" vertex="1" connectable="0" parent="9xbZ0IDPheajc5WfQAc6-32">
          <mxGeometry x="-0.2953" y="1" relative="1" as="geometry">
            <mxPoint x="8" y="-4" as="offset" />
          </mxGeometry>
        </mxCell>
        <mxCell id="9xbZ0IDPheajc5WfQAc6-34" value="" style="endArrow=classic;html=1;rounded=0;fontSize=18;strokeWidth=2;fillColor=#f8cecc;strokeColor=#b85450;dashed=1;" edge="1" parent="1">
          <mxGeometry width="50" height="50" relative="1" as="geometry">
            <mxPoint x="545" y="1010" as="sourcePoint" />
            <mxPoint x="381" y="1050" as="targetPoint" />
          </mxGeometry>
        </mxCell>
        <mxCell id="9xbZ0IDPheajc5WfQAc6-35" value="响应1" style="edgeLabel;html=1;align=center;verticalAlign=middle;resizable=0;points=[];fontSize=18;" vertex="1" connectable="0" parent="9xbZ0IDPheajc5WfQAc6-34">
          <mxGeometry x="0.0003" y="-4" relative="1" as="geometry">
            <mxPoint x="-12" y="11" as="offset" />
          </mxGeometry>
        </mxCell>
        <mxCell id="9xbZ0IDPheajc5WfQAc6-36" value="" style="endArrow=classic;html=1;rounded=0;fontSize=18;strokeWidth=2;fillColor=#f8cecc;strokeColor=#b85450;dashed=1;" edge="1" parent="1">
          <mxGeometry width="50" height="50" relative="1" as="geometry">
            <mxPoint x="545" y="1060" as="sourcePoint" />
            <mxPoint x="381" y="1100" as="targetPoint" />
          </mxGeometry>
        </mxCell>
        <mxCell id="9xbZ0IDPheajc5WfQAc6-37" value="响应2" style="edgeLabel;html=1;align=center;verticalAlign=middle;resizable=0;points=[];fontSize=18;" vertex="1" connectable="0" parent="9xbZ0IDPheajc5WfQAc6-36">
          <mxGeometry x="-0.1752" y="-2" relative="1" as="geometry">
            <mxPoint x="-11" y="5" as="offset" />
          </mxGeometry>
        </mxCell>
        <mxCell id="9xbZ0IDPheajc5WfQAc6-38" value="" style="rounded=0;whiteSpace=wrap;html=1;fontSize=18;strokeWidth=2;" vertex="1" parent="1">
          <mxGeometry x="38" y="1340" width="312" height="200" as="geometry" />
        </mxCell>
        <mxCell id="9xbZ0IDPheajc5WfQAc6-39" value="" style="sketch=0;aspect=fixed;pointerEvents=1;shadow=0;dashed=0;html=1;strokeColor=none;labelPosition=center;verticalLabelPosition=bottom;verticalAlign=top;align=center;fillColor=#00188D;shape=mxgraph.azure.computer" vertex="1" parent="1">
          <mxGeometry x="144" y="1270" width="70" height="63" as="geometry" />
        </mxCell>
        <mxCell id="9xbZ0IDPheajc5WfQAc6-40" value="请求1" style="rounded=1;whiteSpace=wrap;html=1;fontSize=18;strokeWidth=2;" vertex="1" parent="1">
          <mxGeometry x="50" y="1360" width="80" height="40" as="geometry" />
        </mxCell>
        <mxCell id="9xbZ0IDPheajc5WfQAc6-41" value="请求2" style="rounded=1;whiteSpace=wrap;html=1;fontSize=18;strokeWidth=2;" vertex="1" parent="1">
          <mxGeometry x="50" y="1420" width="80" height="40" as="geometry" />
        </mxCell>
        <mxCell id="9xbZ0IDPheajc5WfQAc6-42" value="请求3" style="rounded=1;whiteSpace=wrap;html=1;fontSize=18;strokeWidth=2;" vertex="1" parent="1">
          <mxGeometry x="50" y="1480" width="80" height="40" as="geometry" />
        </mxCell>
        <mxCell id="9xbZ0IDPheajc5WfQAc6-43" value="" style="shape=flexArrow;endArrow=classic;html=1;rounded=0;fontSize=18;strokeWidth=2;" edge="1" parent="1">
          <mxGeometry width="50" height="50" relative="1" as="geometry">
            <mxPoint x="130" y="1439.62" as="sourcePoint" />
            <mxPoint x="170" y="1439.62" as="targetPoint" />
          </mxGeometry>
        </mxCell>
        <mxCell id="9xbZ0IDPheajc5WfQAc6-44" value="" style="shape=flexArrow;endArrow=classic;html=1;rounded=0;fontSize=18;strokeWidth=2;" edge="1" parent="1">
          <mxGeometry width="50" height="50" relative="1" as="geometry">
            <mxPoint x="130" y="1499.62" as="sourcePoint" />
            <mxPoint x="170" y="1499.62" as="targetPoint" />
          </mxGeometry>
        </mxCell>
        <mxCell id="9xbZ0IDPheajc5WfQAc6-45" value="" style="shape=flexArrow;endArrow=classic;html=1;rounded=0;fontSize=18;strokeWidth=2;" edge="1" parent="1">
          <mxGeometry width="50" height="50" relative="1" as="geometry">
            <mxPoint x="130" y="1379.62" as="sourcePoint" />
            <mxPoint x="170" y="1379.62" as="targetPoint" />
          </mxGeometry>
        </mxCell>
        <mxCell id="9xbZ0IDPheajc5WfQAc6-46" value="F1" style="shape=parallelogram;perimeter=parallelogramPerimeter;whiteSpace=wrap;html=1;fixedSize=1;fontSize=18;strokeWidth=2;" vertex="1" parent="1">
          <mxGeometry x="180" y="1370" width="60" height="20" as="geometry" />
        </mxCell>
        <mxCell id="9xbZ0IDPheajc5WfQAc6-47" value="F1" style="shape=parallelogram;perimeter=parallelogramPerimeter;whiteSpace=wrap;html=1;fixedSize=1;fontSize=18;strokeWidth=2;" vertex="1" parent="1">
          <mxGeometry x="236" y="1370" width="60" height="20" as="geometry" />
        </mxCell>
        <mxCell id="9xbZ0IDPheajc5WfQAc6-48" value="F1" style="shape=parallelogram;perimeter=parallelogramPerimeter;whiteSpace=wrap;html=1;fixedSize=1;fontSize=18;strokeWidth=2;" vertex="1" parent="1">
          <mxGeometry x="290" y="1370" width="60" height="20" as="geometry" />
        </mxCell>
        <mxCell id="9xbZ0IDPheajc5WfQAc6-51" value="1" style="text;html=1;align=center;verticalAlign=middle;resizable=0;points=[];autosize=1;strokeColor=none;fillColor=none;fontSize=18;fontColor=#FF0000;" vertex="1" parent="1">
          <mxGeometry x="170" y="1350" width="30" height="30" as="geometry" />
        </mxCell>
        <mxCell id="9xbZ0IDPheajc5WfQAc6-52" value="2" style="text;html=1;align=center;verticalAlign=middle;resizable=0;points=[];autosize=1;strokeColor=none;fillColor=none;fontSize=18;fontColor=#FF0000;" vertex="1" parent="1">
          <mxGeometry x="233" y="1350" width="30" height="30" as="geometry" />
        </mxCell>
        <mxCell id="9xbZ0IDPheajc5WfQAc6-53" value="3" style="text;html=1;align=center;verticalAlign=middle;resizable=0;points=[];autosize=1;strokeColor=none;fillColor=none;fontSize=18;fontColor=#FF0000;" vertex="1" parent="1">
          <mxGeometry x="290" y="1350" width="30" height="30" as="geometry" />
        </mxCell>
        <mxCell id="9xbZ0IDPheajc5WfQAc6-54" value="" style="rounded=0;whiteSpace=wrap;html=1;fontSize=18;strokeWidth=2;" vertex="1" parent="1">
          <mxGeometry x="740" y="1340" width="312" height="200" as="geometry" />
        </mxCell>
        <mxCell id="9xbZ0IDPheajc5WfQAc6-56" value="响应1" style="rounded=1;whiteSpace=wrap;html=1;fontSize=18;strokeWidth=2;" vertex="1" parent="1">
          <mxGeometry x="960" y="1360" width="80" height="40" as="geometry" />
        </mxCell>
        <mxCell id="9xbZ0IDPheajc5WfQAc6-57" value="响应2" style="rounded=1;whiteSpace=wrap;html=1;fontSize=18;strokeWidth=2;" vertex="1" parent="1">
          <mxGeometry x="960" y="1420" width="80" height="40" as="geometry" />
        </mxCell>
        <mxCell id="9xbZ0IDPheajc5WfQAc6-58" value="响应3" style="rounded=1;whiteSpace=wrap;html=1;fontSize=18;strokeWidth=2;" vertex="1" parent="1">
          <mxGeometry x="960" y="1480" width="80" height="40" as="geometry" />
        </mxCell>
        <mxCell id="9xbZ0IDPheajc5WfQAc6-59" value="" style="shape=flexArrow;endArrow=classic;html=1;rounded=0;fontSize=18;strokeWidth=2;" edge="1" parent="1">
          <mxGeometry width="50" height="50" relative="1" as="geometry">
            <mxPoint x="960" y="1439.62" as="sourcePoint" />
            <mxPoint x="920" y="1439.62" as="targetPoint" />
          </mxGeometry>
        </mxCell>
        <mxCell id="9xbZ0IDPheajc5WfQAc6-60" value="" style="shape=flexArrow;endArrow=classic;html=1;rounded=0;fontSize=18;strokeWidth=2;" edge="1" parent="1">
          <mxGeometry width="50" height="50" relative="1" as="geometry">
            <mxPoint x="960" y="1499.62" as="sourcePoint" />
            <mxPoint x="920" y="1499.62" as="targetPoint" />
          </mxGeometry>
        </mxCell>
        <mxCell id="9xbZ0IDPheajc5WfQAc6-61" value="" style="shape=flexArrow;endArrow=classic;html=1;rounded=0;fontSize=18;strokeWidth=2;" edge="1" parent="1">
          <mxGeometry width="50" height="50" relative="1" as="geometry">
            <mxPoint x="960" y="1379.23" as="sourcePoint" />
            <mxPoint x="920" y="1379.23" as="targetPoint" />
          </mxGeometry>
        </mxCell>
        <mxCell id="9xbZ0IDPheajc5WfQAc6-62" value="F1" style="shape=parallelogram;perimeter=parallelogramPerimeter;whiteSpace=wrap;html=1;fixedSize=1;fontSize=18;strokeWidth=2;" vertex="1" parent="1">
          <mxGeometry x="400" y="1410" width="60" height="20" as="geometry" />
        </mxCell>
        <mxCell id="9xbZ0IDPheajc5WfQAc6-63" value="F1" style="shape=parallelogram;perimeter=parallelogramPerimeter;whiteSpace=wrap;html=1;fixedSize=1;fontSize=18;strokeWidth=2;" vertex="1" parent="1">
          <mxGeometry x="456" y="1410" width="60" height="20" as="geometry" />
        </mxCell>
        <mxCell id="9xbZ0IDPheajc5WfQAc6-64" value="F1" style="shape=parallelogram;perimeter=parallelogramPerimeter;whiteSpace=wrap;html=1;fixedSize=1;fontSize=18;strokeWidth=2;" vertex="1" parent="1">
          <mxGeometry x="510" y="1410" width="60" height="20" as="geometry" />
        </mxCell>
        <mxCell id="9xbZ0IDPheajc5WfQAc6-65" value="1" style="text;html=1;align=center;verticalAlign=middle;resizable=0;points=[];autosize=1;strokeColor=none;fillColor=none;fontSize=18;fontColor=#FF0000;" vertex="1" parent="1">
          <mxGeometry x="390" y="1390" width="30" height="30" as="geometry" />
        </mxCell>
        <mxCell id="9xbZ0IDPheajc5WfQAc6-66" value="2" style="text;html=1;align=center;verticalAlign=middle;resizable=0;points=[];autosize=1;strokeColor=none;fillColor=none;fontSize=18;fontColor=#FF0000;" vertex="1" parent="1">
          <mxGeometry x="453" y="1390" width="30" height="30" as="geometry" />
        </mxCell>
        <mxCell id="9xbZ0IDPheajc5WfQAc6-67" value="3" style="text;html=1;align=center;verticalAlign=middle;resizable=0;points=[];autosize=1;strokeColor=none;fillColor=none;fontSize=18;fontColor=#FF0000;" vertex="1" parent="1">
          <mxGeometry x="510" y="1390" width="30" height="30" as="geometry" />
        </mxCell>
        <mxCell id="9xbZ0IDPheajc5WfQAc6-68" value="" style="image;html=1;image=img/lib/clip_art/computers/Server_128x128.png" vertex="1" parent="1">
          <mxGeometry x="851" y="1262.5" width="90" height="87.5" as="geometry" />
        </mxCell>
        <mxCell id="9xbZ0IDPheajc5WfQAc6-69" value="2" style="text;html=1;align=center;verticalAlign=middle;resizable=0;points=[];autosize=1;strokeColor=none;fillColor=none;fontSize=18;fontColor=#FF0000;" vertex="1" parent="1">
          <mxGeometry x="570" y="1270" width="30" height="30" as="geometry" />
        </mxCell>
        <mxCell id="9xbZ0IDPheajc5WfQAc6-82" value="" style="sketch=0;aspect=fixed;pointerEvents=1;shadow=0;dashed=0;html=1;strokeColor=none;labelPosition=center;verticalLabelPosition=bottom;verticalAlign=top;align=center;fillColor=#00188D;shape=mxgraph.azure.computer" vertex="1" parent="1">
          <mxGeometry x="233" y="1596.25" width="70" height="63" as="geometry" />
        </mxCell>
        <mxCell id="9xbZ0IDPheajc5WfQAc6-83" value="" style="image;html=1;image=img/lib/clip_art/computers/Server_128x128.png" vertex="1" parent="1">
          <mxGeometry x="402" y="1584" width="90" height="87.5" as="geometry" />
        </mxCell>
        <mxCell id="9xbZ0IDPheajc5WfQAc6-84" value="" style="endArrow=classic;html=1;rounded=0;fontSize=18;strokeWidth=4;exitX=0.5;exitY=1;exitDx=0;exitDy=0;exitPerimeter=0;" edge="1" parent="1" source="9xbZ0IDPheajc5WfQAc6-82">
          <mxGeometry width="50" height="50" relative="1" as="geometry">
            <mxPoint x="582" y="1447.25" as="sourcePoint" />
            <mxPoint x="268" y="1922.2500000000002" as="targetPoint" />
          </mxGeometry>
        </mxCell>
        <mxCell id="9xbZ0IDPheajc5WfQAc6-85" value="" style="endArrow=classic;html=1;rounded=0;fontSize=18;strokeWidth=4;exitX=0.5;exitY=1;exitDx=0;exitDy=0;exitPerimeter=0;" edge="1" parent="1">
          <mxGeometry width="50" height="50" relative="1" as="geometry">
            <mxPoint x="451" y="1657.2500000000002" as="sourcePoint" />
            <mxPoint x="451" y="1920.2499999999998" as="targetPoint" />
          </mxGeometry>
        </mxCell>
        <mxCell id="9xbZ0IDPheajc5WfQAc6-86" value="" style="endArrow=classic;html=1;rounded=0;fontSize=18;strokeWidth=2;fillColor=#d5e8d4;strokeColor=#82b366;" edge="1" parent="1">
          <mxGeometry width="50" height="50" relative="1" as="geometry">
            <mxPoint x="275" y="1681.25" as="sourcePoint" />
            <mxPoint x="443" y="1751.25" as="targetPoint" />
          </mxGeometry>
        </mxCell>
        <mxCell id="9xbZ0IDPheajc5WfQAc6-87" value="&lt;span style=&quot;background-color: rgb(248 , 249 , 250)&quot;&gt;请求1&lt;/span&gt;" style="edgeLabel;html=1;align=center;verticalAlign=middle;resizable=0;points=[];fontSize=18;" vertex="1" connectable="0" parent="9xbZ0IDPheajc5WfQAc6-86">
          <mxGeometry x="-0.6114" relative="1" as="geometry">
            <mxPoint x="37" as="offset" />
          </mxGeometry>
        </mxCell>
        <mxCell id="9xbZ0IDPheajc5WfQAc6-88" value="" style="endArrow=classic;html=1;rounded=0;fontSize=18;strokeWidth=2;fillColor=#d5e8d4;strokeColor=#82b366;" edge="1" parent="1">
          <mxGeometry width="50" height="50" relative="1" as="geometry">
            <mxPoint x="275" y="1721.25" as="sourcePoint" />
            <mxPoint x="443" y="1801.25" as="targetPoint" />
          </mxGeometry>
        </mxCell>
        <mxCell id="9xbZ0IDPheajc5WfQAc6-89" value="&lt;span style=&quot;background-color: rgb(248 , 249 , 250)&quot;&gt;请求2&lt;/span&gt;" style="edgeLabel;html=1;align=center;verticalAlign=middle;resizable=0;points=[];fontSize=18;" vertex="1" connectable="0" parent="9xbZ0IDPheajc5WfQAc6-88">
          <mxGeometry x="-0.2953" y="1" relative="1" as="geometry">
            <mxPoint x="8" y="-4" as="offset" />
          </mxGeometry>
        </mxCell>
        <mxCell id="9xbZ0IDPheajc5WfQAc6-90" value="" style="endArrow=classic;html=1;rounded=0;fontSize=18;strokeWidth=2;fillColor=#f8cecc;strokeColor=#b85450;dashed=1;" edge="1" parent="1">
          <mxGeometry width="50" height="50" relative="1" as="geometry">
            <mxPoint x="440" y="1750" as="sourcePoint" />
            <mxPoint x="276" y="1870" as="targetPoint" />
          </mxGeometry>
        </mxCell>
        <mxCell id="9xbZ0IDPheajc5WfQAc6-91" value="响应1" style="edgeLabel;html=1;align=center;verticalAlign=middle;resizable=0;points=[];fontSize=18;" vertex="1" connectable="0" parent="9xbZ0IDPheajc5WfQAc6-90">
          <mxGeometry x="0.0003" y="-4" relative="1" as="geometry">
            <mxPoint x="-6" y="-17" as="offset" />
          </mxGeometry>
        </mxCell>
        <mxCell id="9xbZ0IDPheajc5WfQAc6-92" value="" style="endArrow=classic;html=1;rounded=0;fontSize=18;strokeWidth=2;fillColor=#f8cecc;strokeColor=#b85450;dashed=1;" edge="1" parent="1">
          <mxGeometry width="50" height="50" relative="1" as="geometry">
            <mxPoint x="440" y="1800" as="sourcePoint" />
            <mxPoint x="276" y="1840" as="targetPoint" />
          </mxGeometry>
        </mxCell>
        <mxCell id="9xbZ0IDPheajc5WfQAc6-93" value="响应2" style="edgeLabel;html=1;align=center;verticalAlign=middle;resizable=0;points=[];fontSize=18;" vertex="1" connectable="0" parent="9xbZ0IDPheajc5WfQAc6-92">
          <mxGeometry x="-0.1752" y="-2" relative="1" as="geometry">
            <mxPoint x="28" y="5" as="offset" />
          </mxGeometry>
        </mxCell>
        <mxCell id="9xbZ0IDPheajc5WfQAc6-94" value="HTTP" style="rounded=1;whiteSpace=wrap;html=1;fontSize=18;strokeWidth=2;fillColor=#fff2cc;strokeColor=#d6b656;" vertex="1" parent="1">
          <mxGeometry x="108" y="2020" width="120" height="60" as="geometry" />
        </mxCell>
        <mxCell id="9xbZ0IDPheajc5WfQAc6-95" value="FTP" style="rounded=1;whiteSpace=wrap;html=1;fontSize=18;strokeWidth=2;fillColor=#fff2cc;strokeColor=#d6b656;" vertex="1" parent="1">
          <mxGeometry x="263" y="2020" width="120" height="60" as="geometry" />
        </mxCell>
        <mxCell id="9xbZ0IDPheajc5WfQAc6-96" value="IMTP" style="rounded=1;whiteSpace=wrap;html=1;fontSize=18;strokeWidth=2;fillColor=#fff2cc;strokeColor=#d6b656;" vertex="1" parent="1">
          <mxGeometry x="420" y="2020" width="120" height="60" as="geometry" />
        </mxCell>
        <mxCell id="9xbZ0IDPheajc5WfQAc6-97" value="... ..." style="rounded=1;whiteSpace=wrap;html=1;fontSize=18;strokeWidth=2;fillColor=#fff2cc;strokeColor=#d6b656;" vertex="1" parent="1">
          <mxGeometry x="580" y="2020" width="120" height="60" as="geometry" />
        </mxCell>
        <mxCell id="9xbZ0IDPheajc5WfQAc6-98" value="SSL/TLS" style="rounded=1;whiteSpace=wrap;html=1;fontSize=18;strokeWidth=2;fillColor=#f8cecc;strokeColor=#b85450;" vertex="1" parent="1">
          <mxGeometry x="345" y="2110" width="120" height="60" as="geometry" />
        </mxCell>
        <mxCell id="9xbZ0IDPheajc5WfQAc6-99" value="TCP" style="rounded=1;whiteSpace=wrap;html=1;fontSize=18;strokeWidth=2;fillColor=#d5e8d4;strokeColor=#82b366;" vertex="1" parent="1">
          <mxGeometry x="340" y="2200" width="120" height="60" as="geometry" />
        </mxCell>
        <mxCell id="9xbZ0IDPheajc5WfQAc6-100" value="" style="sketch=0;aspect=fixed;pointerEvents=1;shadow=0;dashed=0;html=1;strokeColor=none;labelPosition=center;verticalLabelPosition=bottom;verticalAlign=top;align=center;fillColor=#00188D;shape=mxgraph.azure.computer" vertex="1" parent="1">
          <mxGeometry x="228" y="2354.25" width="70" height="63" as="geometry" />
        </mxCell>
        <mxCell id="9xbZ0IDPheajc5WfQAc6-101" value="" style="image;html=1;image=img/lib/clip_art/computers/Server_128x128.png" vertex="1" parent="1">
          <mxGeometry x="547.48" y="2338" width="90" height="87.5" as="geometry" />
        </mxCell>
        <mxCell id="9xbZ0IDPheajc5WfQAc6-102" value="" style="endArrow=classic;html=1;rounded=0;fontSize=18;strokeWidth=4;exitX=0.5;exitY=1;exitDx=0;exitDy=0;exitPerimeter=0;" edge="1" parent="1" source="9xbZ0IDPheajc5WfQAc6-100">
          <mxGeometry width="50" height="50" relative="1" as="geometry">
            <mxPoint x="577" y="2205.25" as="sourcePoint" />
            <mxPoint x="263" y="2680.25" as="targetPoint" />
          </mxGeometry>
        </mxCell>
        <mxCell id="9xbZ0IDPheajc5WfQAc6-103" value="" style="endArrow=classic;html=1;rounded=0;fontSize=18;strokeWidth=4;exitX=0.5;exitY=1;exitDx=0;exitDy=0;exitPerimeter=0;" edge="1" parent="1">
          <mxGeometry width="50" height="50" relative="1" as="geometry">
            <mxPoint x="596.48" y="2411.25" as="sourcePoint" />
            <mxPoint x="596.48" y="2674.25" as="targetPoint" />
          </mxGeometry>
        </mxCell>
        <mxCell id="9xbZ0IDPheajc5WfQAc6-112" value="" style="shape=flexArrow;endArrow=classic;startArrow=classic;html=1;rounded=0;fontSize=18;fontColor=#FF0000;strokeWidth=2;fillColor=#d5e8d4;strokeColor=#82b366;" edge="1" parent="1">
          <mxGeometry width="100" height="100" relative="1" as="geometry">
            <mxPoint x="270" y="2470" as="sourcePoint" />
            <mxPoint x="590" y="2470" as="targetPoint" />
          </mxGeometry>
        </mxCell>
        <mxCell id="9xbZ0IDPheajc5WfQAc6-128" value="&lt;span style=&quot;background-color: rgb(248 , 249 , 250)&quot;&gt;Tcp 三次握手&lt;/span&gt;" style="edgeLabel;html=1;align=center;verticalAlign=middle;resizable=0;points=[];fontSize=18;fontColor=#FF0000;" vertex="1" connectable="0" parent="9xbZ0IDPheajc5WfQAc6-112">
          <mxGeometry x="-0.1712" y="5" relative="1" as="geometry">
            <mxPoint x="28" y="-15" as="offset" />
          </mxGeometry>
        </mxCell>
        <mxCell id="9xbZ0IDPheajc5WfQAc6-129" value="" style="shape=flexArrow;endArrow=classic;startArrow=classic;html=1;rounded=0;fontSize=18;fontColor=#FF0000;strokeWidth=2;fillColor=#f8cecc;strokeColor=#b85450;" edge="1" parent="1">
          <mxGeometry width="100" height="100" relative="1" as="geometry">
            <mxPoint x="270" y="2550.0000000000005" as="sourcePoint" />
            <mxPoint x="590" y="2550.0000000000005" as="targetPoint" />
          </mxGeometry>
        </mxCell>
        <mxCell id="9xbZ0IDPheajc5WfQAc6-130" value="&lt;span style=&quot;background-color: rgb(248 , 249 , 250)&quot;&gt;SSL/TLS 四次握手&lt;/span&gt;" style="edgeLabel;html=1;align=center;verticalAlign=middle;resizable=0;points=[];fontSize=18;fontColor=#FF0000;" vertex="1" connectable="0" parent="9xbZ0IDPheajc5WfQAc6-129">
          <mxGeometry x="-0.1712" y="5" relative="1" as="geometry">
            <mxPoint x="28" y="-15" as="offset" />
          </mxGeometry>
        </mxCell>
        <mxCell id="9xbZ0IDPheajc5WfQAc6-132" value="" style="shape=flexArrow;endArrow=classic;startArrow=classic;html=1;rounded=0;fontSize=18;fontColor=#FF0000;strokeWidth=2;fillColor=#dae8fc;strokeColor=#6c8ebf;" edge="1" parent="1">
          <mxGeometry width="100" height="100" relative="1" as="geometry">
            <mxPoint x="270" y="2630.0000000000005" as="sourcePoint" />
            <mxPoint x="590" y="2630.0000000000005" as="targetPoint" />
          </mxGeometry>
        </mxCell>
        <mxCell id="9xbZ0IDPheajc5WfQAc6-133" value="&lt;span style=&quot;background-color: rgb(248 , 249 , 250)&quot;&gt;HTTP Req/Res 对称加密传输&lt;/span&gt;" style="edgeLabel;html=1;align=center;verticalAlign=middle;resizable=0;points=[];fontSize=18;fontColor=#FF0000;" vertex="1" connectable="0" parent="9xbZ0IDPheajc5WfQAc6-132">
          <mxGeometry x="-0.1712" y="5" relative="1" as="geometry">
            <mxPoint x="28" y="-15" as="offset" />
          </mxGeometry>
        </mxCell>
      </root>
    </mxGraphModel>
  </diagram>
</mxfile>
